# xmcd
#
# Track frame offsets: 
#        150
#        12472
#        38572
#        61324
#        78371
#        96119
#        111769
#        132742
#        148142
#        161307
#        176896
#
# Disc length: 2697 seconds
#
# Revision: 0
# Processed by: cddbd v1.5PL3 Copyright (c) Steve Scherf et al.
# Submitted via: ExactAudioCopy v0.95a3
#
DISCID=930a870b
DTITLE=Taj Mahal and The Hula Blues - Hanapepe Dream
DYEAR=2000
DGENRE=
TTITLE0=Great Big Boat
TTITLE1=Blackjack Davey
TTITLE2=Moonlight Lady
TTITLE3=King Edward's Throne
TTITLE4=African Herbman
TTITLE5=Baby You're My Destiny
TTITLE6=Stagger Lee
TTITLE7=Livin' On Easy
TTITLE8=My Creole Belle
TTITLE9=All Along The Watchtower
TTITLE10=Hanapepe Dream
EXTD=Retail disc comes with CD Extras.\nNot on this er.... version !\n
EXTD=\n\n
EXTT0=
EXTT1=
EXTT2=
EXTT3=
EXTT4=
EXTT5=
EXTT6=
EXTT7=
EXTT8=
EXTT9=
EXTT10=
PLAYORDER=
